# xmcd
#
# Track frame offsets: 
#        150
#        13944
#        27566
#        43842
#        56557
#        71986
#        87962
#        105422
#
# Disc length: 1588 seconds
#
# Revision: 0
# Processed by: cddbd v1.5.2PL0 Copyright (c) Steve Scherf et al.
# Submitted via: ExactAudioCopy v1.0b1
#
DISCID=6d063208
DTITLE=Kevin Fowler - Coming To A Honky Tonk Near You
DYEAR=2016
DGENRE=Country
TTITLE0=Movin' On
TTITLE1=Texas Forever
TTITLE2=Honky Tonk Near You
TTITLE3=The Bouncer
TTITLE4=Livin' Proof
TTITLE5=Sellout Song
TTITLE6=He Ain't No Cowboy
TTITLE7=A Guy Like That
EXTD=
EXTT0=
EXTT1=
EXTT2=
EXTT3=
EXTT4=
EXTT5=
EXTT6=
EXTT7=
PLAYORDER=
